<?xml version="1.0" standalone="no"?>
<!DOCTYPE svg PUBLIC "-//W3C//DTD SVG 20010904//EN"
 "http://www.w3.org/TR/2001/REC-SVG-20010904/DTD/svg10.dtd">
<svg version="1.0" xmlns="http://www.w3.org/2000/svg"
 width="1000.000000pt" height="1000.000000pt" viewBox="0 0 1000.000000 1000.000000"
 preserveAspectRatio="xMidYMid meet">
<metadata>
Created by potrace 1.14, written by Peter Selinger 2001-2017
</metadata>
<g transform="translate(0.000000,1000.000000) scale(0.100000,-0.100000)"
fill="#000000" stroke="none">
<path d="M0 5000 l0 -5000 5000 0 5000 0 0 5000 0 5000 -5000 0 -5000 0 0
-5000z m4143 1463 c4 -1145 4 -1159 25 -1254 68 -302 227 -476 502 -551 76
-20 106 -23 275 -22 177 0 196 2 278 27 344 105 539 356 613 787 14 82 17 232
21 1133 l4 1037 472 -2 472 -3 3 -2155 c2 -1421 -1 -2203 -7 -2295 -6 -79 -20
-173 -31 -214 -78 -281 -283 -476 -576 -548 -63 -15 -187 -17 -1316 -20
l-1248 -4 0 415 0 415 1053 3 c971 3 1054 4 1083 20 43 23 81 71 94 116 6 23
10 222 10 530 l0 492 -67 0 -68 -1 -35 -61 c-47 -82 -185 -227 -271 -284 -148
-98 -341 -163 -550 -185 -157 -16 -448 -6 -566 20 -275 61 -486 174 -678 366
-227 226 -359 501 -421 875 -16 94 -18 225 -21 1298 -3 657 -2 1200 1 1208 4
12 82 14 475 14 l470 0 4 -1157z"/>
</g>
</svg>
